<svg width="24" height="24" viewBox="0 0 24 24" fill="none" xmlns="http://www.w3.org/2000/svg">
<path d="M4.22217 12.0002V3.11133M19.7777 20.8891V17.5558M4.22217 20.8891V16.4447M19.7777 13.1113V3.11133M11.9999 6.44466V3.11133M11.9999 20.8891V10.8891" stroke="#347DFF" stroke-linecap="round"/>
<path d="M4.22222 16.4444C5.44952 16.4444 6.44444 15.4495 6.44444 14.2222C6.44444 12.9949 5.44952 12 4.22222 12C2.99492 12 2 12.9949 2 14.2222C2 15.4495 2.99492 16.4444 4.22222 16.4444Z" fill="#347DFF"/>
<path d="M12.0001 10.8888C13.2274 10.8888 14.2223 9.89386 14.2223 8.66656C14.2223 7.43926 13.2274 6.44434 12.0001 6.44434C10.7728 6.44434 9.77783 7.43926 9.77783 8.66656C9.77783 9.89386 10.7728 10.8888 12.0001 10.8888Z" fill="#347DFF"/>
<path d="M19.7779 17.5558C21.0052 17.5558 22.0001 16.5608 22.0001 15.3336C22.0001 14.1063 21.0052 13.1113 19.7779 13.1113C18.5506 13.1113 17.5557 14.1063 17.5557 15.3336C17.5557 16.5608 18.5506 17.5558 19.7779 17.5558Z" fill="#347DFF"/>
</svg>
