<svg width="14" height="14" viewBox="0 0 14 14" fill="none" xmlns="http://www.w3.org/2000/svg">
<path d="M1.91602 6.25514H10.2791L6.62538 2.60145C6.33339 2.30946 6.33339 1.83029 6.62538 1.53829C6.69465 1.46888 6.77692 1.41382 6.8675 1.37625C6.95807 1.33867 7.05516 1.31934 7.15322 1.31934C7.25128 1.31934 7.34837 1.33867 7.43894 1.37625C7.52952 1.41382 7.61179 1.46888 7.68106 1.53829L12.615 6.47226C12.6844 6.54153 12.7395 6.6238 12.7771 6.71438C12.8146 6.80495 12.834 6.90204 12.834 7.0001C12.834 7.09816 12.8146 7.19525 12.7771 7.28582C12.7395 7.3764 12.6844 7.45867 12.615 7.52794L7.68106 12.4619C7.61174 12.5312 7.52945 12.5862 7.43888 12.6237C7.34832 12.6612 7.25125 12.6805 7.15322 12.6805C7.05519 12.6805 6.95812 12.6612 6.86756 12.6237C6.77699 12.5862 6.6947 12.5312 6.62538 12.4619C6.55607 12.3926 6.50108 12.3103 6.46357 12.2197C6.42605 12.1292 6.40675 12.0321 6.40675 11.9341C6.40675 11.836 6.42605 11.739 6.46357 11.6484C6.50108 11.5578 6.55607 11.4755 6.62538 11.4062L10.2791 7.75255H1.91602C1.50424 7.75255 1.16732 7.41563 1.16732 7.00384C1.16732 6.59205 1.50424 6.25514 1.91602 6.25514Z" fill="#347DFF"/>
</svg>
