<svg width="24" height="24" viewBox="0 0 24 24" fill="none" xmlns="http://www.w3.org/2000/svg">
<g id="gear-stick-pattern 1">
<path id="Vector" d="M4.29668 2.76882C3.68651 2.77188 3.10236 3.01641 2.67198 3.44896C2.24159 3.88151 1.99999 4.46687 2 5.07706C2.00122 5.61323 2.18907 6.13226 2.53128 6.54502C2.87349 6.95778 3.34873 7.23854 3.87539 7.33908V16.6583C3.34798 16.7589 2.87217 17.0403 2.52987 17.454C2.18757 17.8677 2.00019 18.3878 2 18.9247C2.00047 19.5366 2.24387 20.1232 2.6767 20.5557C3.10952 20.9882 3.69636 21.2312 4.30824 21.2312C4.91981 21.2307 5.50619 20.9876 5.93863 20.5551C6.37108 20.1227 6.61423 19.5363 6.6147 18.9247C6.61461 18.3881 6.42755 17.8683 6.08569 17.4546C5.74383 17.041 5.26854 16.7594 4.74153 16.6583V12.432H11.5654V16.6583C11.038 16.7589 10.5622 17.0403 10.2199 17.454C9.87755 17.8677 9.69018 18.3878 9.68998 18.9247C9.69022 19.2279 9.75018 19.5281 9.86645 19.8081C9.98272 20.0881 10.153 20.3425 10.3676 20.5567C10.5822 20.7709 10.8369 20.9407 11.1172 21.0564C11.3974 21.1721 11.6977 21.2315 12.0009 21.2312C12.6125 21.2307 13.1988 20.9876 13.6313 20.5551C14.0637 20.1227 14.3069 19.5363 14.3074 18.9247C14.3072 18.3878 14.1198 17.8677 13.7775 17.454C13.4352 17.0403 12.9594 16.7589 12.432 16.6583V12.432H20.1246V7.33908C20.6513 7.23854 21.1265 6.95778 21.4687 6.54502C21.8109 6.13226 21.9988 5.61323 22 5.07706C22 4.46519 21.7571 3.87835 21.3246 3.44552C20.8921 3.01269 20.3054 2.76929 19.6935 2.76882C19.6906 2.76882 19.6876 2.76882 19.6847 2.76882C19.0743 2.77164 18.4899 3.01607 18.0594 3.44865C17.6288 3.88122 17.3871 4.46672 17.3871 5.07706C17.3883 5.61323 17.5761 6.13226 17.9184 6.54502C18.2606 6.95778 18.7358 7.23854 19.2625 7.33908V11.5654H12.432V7.33908C12.9586 7.23854 13.4339 6.95778 13.7761 6.54502C14.1183 6.13226 14.3061 5.61323 14.3074 5.07706C14.3074 4.46519 14.0644 3.87835 13.6319 3.44552C13.1994 3.01269 12.6128 2.76929 12.0009 2.76882C11.9979 2.76882 11.995 2.76882 11.992 2.76882C11.3809 2.77047 10.7954 3.01438 10.3638 3.44708C9.93232 3.87979 9.68998 4.46595 9.68998 5.07706C9.69121 5.61323 9.87905 6.13226 10.2213 6.54502C10.5635 6.95778 11.0387 7.23854 11.5654 7.33908V11.5654H4.74153V7.33908C5.26779 7.23808 5.74251 6.95713 6.08428 6.54441C6.42605 6.13169 6.61358 5.61292 6.6147 5.07706C6.6147 4.46519 6.37176 3.87835 5.93926 3.44552C5.50677 3.01269 4.92011 2.76929 4.30824 2.76882C4.30439 2.76881 4.30054 2.76881 4.29668 2.76882Z" fill="#666666"/>
</g>
</svg>
