<svg width="12" height="12" viewBox="0 0 12 12" fill="none" xmlns="http://www.w3.org/2000/svg">
<g id="check--check-form-validation-checkmark-success-add-addition-tick">
<path id="Vector (Stroke)" fill-rule="evenodd" clip-rule="evenodd" d="M11.531 1.17025C11.6153 1.23988 11.685 1.32543 11.7363 1.42202C11.7875 1.51862 11.8192 1.62435 11.8295 1.7332C11.8399 1.84204 11.8287 1.95186 11.7966 2.05638C11.7645 2.1609 11.7122 2.25808 11.6425 2.34236L4.94954 10.4422L4.94704 10.4439C4.7949 10.6268 4.60386 10.7736 4.38785 10.8734C4.17184 10.9732 3.93628 11.0235 3.69835 11.0208C3.45685 11.0178 3.21915 10.9603 3.00304 10.8525C2.78694 10.7446 2.59804 10.5893 2.45048 10.3981L2.44965 10.3964L0.353512 7.70258C0.283521 7.61661 0.231407 7.51752 0.200228 7.41114C0.169049 7.30475 0.159433 7.19321 0.171945 7.08306C0.184457 6.97291 0.218844 6.86636 0.273089 6.76968C0.327334 6.673 0.400343 6.58813 0.487833 6.52004C0.575323 6.45196 0.675531 6.40203 0.782576 6.3732C0.889621 6.34437 1.00135 6.3372 1.1112 6.35213C1.22105 6.36706 1.32681 6.40378 1.42228 6.46014C1.51774 6.5165 1.60099 6.59135 1.66714 6.68032L3.71832 9.31673L10.358 1.2818C10.4277 1.1975 10.5132 1.12775 10.6098 1.07652C10.7064 1.02529 10.8122 0.993595 10.921 0.983237C11.0298 0.972878 11.1397 0.984062 11.2442 1.01615C11.3487 1.04824 11.4459 1.1006 11.5302 1.17025H11.531Z" fill="#FAFAFA"/>
</g>
</svg>
