<svg width="60" height="60" viewBox="0 0 60 60" fill="none" xmlns="http://www.w3.org/2000/svg">
<rect width="60" height="60" rx="30" fill="#EBF2FF"/>
<path d="M41.9134 26.0938H38.9901L38.1776 24.0625C37.3426 21.9741 35.3499 20.625 33.1004 20.625H26.8992C24.6502 20.625 22.6571 21.9741 21.8216 24.0625L21.0091 26.0938H18.0862C17.7049 26.0938 17.4251 26.4522 17.5179 26.8218L17.8109 27.9937C17.8758 28.2544 18.1102 28.4375 18.3792 28.4375H19.3592C18.7034 29.0103 18.2811 29.8428 18.2811 30.7813V33.125C18.2811 33.9121 18.5819 34.6226 19.0623 35.1724V37.8125C19.0623 38.6753 19.762 39.375 20.6248 39.375H22.1873C23.0501 39.375 23.7498 38.6753 23.7498 37.8125V36.25H36.2498V37.8125C36.2498 38.6753 36.9496 39.375 37.8123 39.375H39.3749C40.2376 39.375 40.9374 38.6753 40.9374 37.8125V35.1724C41.4178 34.6231 41.7186 33.9126 41.7186 33.125V30.7813C41.7186 29.8428 41.2962 29.0103 40.641 28.4375H41.6209C41.89 28.4375 42.1244 28.2544 42.1893 27.9937L42.4823 26.8218C42.5746 26.4522 42.2948 26.0938 41.9134 26.0938ZM24.723 25.2232C25.0789 24.3335 25.9408 23.75 26.8992 23.75H33.1004C34.0589 23.75 34.9207 24.3335 35.2767 25.2232L36.2498 27.6563H23.7498L24.723 25.2232ZM22.1873 33.1153C21.2498 33.1153 20.6248 32.4922 20.6248 31.5576C20.6248 30.6231 21.2498 30 22.1873 30C23.1248 30 24.5311 31.4019 24.5311 32.3364C24.5311 33.271 23.1248 33.1153 22.1873 33.1153ZM37.8123 33.1153C36.8748 33.1153 35.4686 33.271 35.4686 32.3364C35.4686 31.4019 36.8748 30 37.8123 30C38.7499 30 39.3749 30.6231 39.3749 31.5576C39.3749 32.4922 38.7499 33.1153 37.8123 33.1153Z" fill="#347DFF"/>
</svg>
