<svg width="60" height="60" viewBox="0 0 60 60" fill="none" xmlns="http://www.w3.org/2000/svg">
<rect width="60" height="60" rx="30" fill="#EBF2FF"/>
<path fill-rule="evenodd" clip-rule="evenodd" d="M33.1607 17.5052C32.9346 17.4865 32.7072 17.5181 32.4948 17.5978C32.2824 17.6774 32.0903 17.8032 31.9322 17.9659L18.153 31.7451C17.7349 32.1636 17.5 32.7311 17.5 33.3227C17.5 33.9143 17.7349 34.4817 18.153 34.9002L25.0989 41.8461C25.3062 42.0534 25.5522 42.2178 25.8231 42.33C26.0939 42.4423 26.3842 42.5 26.6773 42.5C26.9705 42.5 27.2608 42.4423 27.5316 42.33C27.8024 42.2178 28.0485 42.0534 28.2558 41.8461L42.0332 28.0669C42.2034 27.9014 42.333 27.6987 42.4117 27.4747C42.4904 27.2507 42.5161 27.0115 42.4867 26.7759L41.4386 19.9729C41.4069 19.6093 41.2481 19.2684 40.9902 19.0101C40.7322 18.7519 40.3916 18.5927 40.028 18.5605L33.225 17.5124C33.2037 17.5092 33.1822 17.5068 33.1607 17.5052ZM35.357 26.4277C34.8834 26.4277 34.4292 26.2396 34.0944 25.9047C33.7595 25.5699 33.5714 25.1157 33.5714 24.6421C33.5714 24.1686 33.7595 23.7144 34.0944 23.3796C34.4292 23.0447 34.8834 22.8566 35.357 22.8566C35.8305 22.8566 36.2847 23.0447 36.6195 23.3796C36.9544 23.7144 37.1425 24.1686 37.1425 24.6421C37.1425 25.1157 36.9544 25.5699 36.6195 25.9047C36.2847 26.2396 35.8305 26.4277 35.357 26.4277Z" fill="#347DFF"/>
</svg>
