<svg width="60" height="60" viewBox="0 0 60 60" fill="none" xmlns="http://www.w3.org/2000/svg">
<rect width="60" height="60" rx="30" fill="#EBF2FF"/>
<path fill-rule="evenodd" clip-rule="evenodd" d="M25.6607 33.5719C25.5607 33.3719 25.3606 33.2385 25.1606 33.1718C24.8938 33.0718 24.5604 33.2052 24.3937 33.4386L22.7933 35.4391C22.7933 35.4391 22.7933 35.4391 22.7599 35.4724C22.5599 35.6725 22.5265 36.0059 22.6933 36.2393C22.7933 36.4394 22.9933 36.5727 23.1934 36.6394C23.4601 36.7394 23.7935 36.6061 23.9603 36.3727L25.5607 34.3721C25.5607 34.3721 25.5607 34.3388 25.594 34.3388C25.7607 34.1388 25.7941 33.8053 25.6607 33.5719ZM37.7972 34.3055L29.9285 27.9705C29.8285 27.8704 29.6951 27.8038 29.5284 27.7704C29.4284 27.7704 29.3617 27.7704 29.295 27.8371C29.2283 27.9371 29.1616 28.0705 29.1283 28.2039V28.2372C29.0949 28.3706 29.0616 28.5039 29.0616 28.6373C29.0283 28.804 29.0283 28.9707 28.9616 29.1708C28.8949 29.4375 28.8282 29.7043 28.7282 29.9376C28.6282 30.171 28.4948 30.4044 28.3614 30.6045C28.1947 30.8379 27.9613 31.0713 27.7279 31.238C27.4945 31.4047 27.2278 31.5047 26.9611 31.5714C26.6943 31.6048 26.4609 31.6048 26.1942 31.5381C26.0275 31.5047 25.8608 31.438 25.694 31.3714C25.2606 31.2046 25.2606 31.2047 25.2273 30.2377C25.1939 29.5375 25.1606 28.1372 25.1606 27.4037C25.1272 27.0702 25.1606 26.7702 25.2939 26.4701C25.4607 26.17 25.694 25.8699 25.9608 25.6365C26.1608 25.4365 26.4276 25.1697 26.7277 24.8696C25.9941 24.803 25.2939 24.7029 24.5938 24.5362C24.1603 24.4029 23.7269 24.2361 23.3268 24.0361C23.06 23.9027 22.8266 23.7694 22.5932 23.636L19.3257 31.0713C19.6925 31.138 20.0592 31.2713 20.326 31.5047C20.6594 31.8048 20.9595 32.1716 21.1595 32.5717L21.5263 32.1382C21.8597 31.7381 22.2932 31.5381 22.7933 31.5047C23.0934 31.5047 23.3601 31.5381 23.6268 31.6381C23.8936 31.7381 24.127 31.9382 24.2937 32.1716C24.3604 32.2716 24.3937 32.3716 24.4604 32.4717C24.7605 32.3383 25.0939 32.3383 25.394 32.4383C25.7941 32.5717 26.1275 32.8384 26.3275 33.2052C26.4943 33.4719 26.5609 33.8053 26.4943 34.1054C26.661 34.1054 26.8277 34.1721 26.9611 34.2388C27.2278 34.3388 27.4278 34.5055 27.6279 34.7056C27.7946 34.9056 27.928 35.1724 27.9947 35.4391C28.028 35.6392 28.028 35.8725 27.9947 36.0726C28.128 36.1059 28.228 36.1393 28.3281 36.1726C28.5948 36.306 28.8282 36.506 29.0283 36.7394C29.2283 37.0062 29.3283 37.3063 29.3617 37.6063C29.395 38.0064 29.2617 38.4065 28.9949 38.74L29.7951 39.4068C30.1285 39.6735 30.5953 39.6735 30.8954 39.4068C31.0288 39.3401 31.1288 39.2401 31.2288 39.1067C31.3289 39.0067 31.3955 38.9067 31.4622 38.7733C31.4956 38.7066 31.6289 38.7066 31.6289 38.7066L30.3286 37.7064C30.2619 37.6397 30.1952 37.5397 30.1619 37.4396C30.1619 37.3396 30.1619 37.2396 30.2286 37.1395C30.2953 37.0729 30.3953 37.0062 30.4953 36.9728C30.5953 36.9728 30.6954 37.0062 30.762 37.0395L32.0624 38.0064C32.2958 38.2065 32.6292 38.2398 32.9293 38.1065C33.0293 38.0398 33.1293 37.9731 33.196 37.8731C33.2627 37.773 33.3294 37.673 33.3627 37.5396C33.4628 37.2396 33.3627 36.9395 33.1293 36.7394L31.5956 35.5058C31.4289 35.3724 31.4289 35.139 31.5623 34.9723C31.6956 34.8056 31.929 34.7723 32.0957 34.9056L33.6295 36.1393L33.6628 36.1726L34.463 36.8061C34.6964 37.0062 35.0632 37.0395 35.3299 36.8728C35.4299 36.8061 35.53 36.7394 35.5967 36.6394C35.6633 36.5394 35.73 36.4394 35.7634 36.306C35.7967 36.2393 35.7967 36.1726 35.7967 36.0726C35.7967 35.8725 35.73 35.6725 35.5633 35.5391L33.3294 33.8053C33.1627 33.672 33.1293 33.4386 33.2627 33.2719C33.3294 33.2052 33.4294 33.1385 33.5294 33.1385C33.6295 33.1385 33.7295 33.1718 33.7962 33.2385L35.8967 34.939L35.9301 34.9723C35.9634 35.0057 35.9968 35.0056 36.0301 35.039L36.7303 35.6058C36.9637 35.8059 37.2971 35.8059 37.5305 35.6392C37.6305 35.5725 37.7306 35.5058 37.8306 35.4058C37.8973 35.3057 37.9639 35.2057 37.9973 35.0723C38.1307 34.8056 38.064 34.4722 37.7972 34.3055ZM37.7639 23.4359C37.5305 23.5026 37.2971 23.5693 37.0971 23.6026C36.5969 23.6693 36.0634 23.7027 35.53 23.636C34.6964 23.5693 33.5628 23.3693 32.5625 23.2025C31.9957 23.1025 31.4956 23.0358 31.0955 22.9691C30.7287 22.9025 30.3619 22.9025 30.0285 22.9691C29.7284 23.0692 29.4284 23.2692 29.195 23.5026C28.8615 23.8027 28.4614 24.2028 28.028 24.6029C27.9613 24.6696 27.8946 24.7029 27.8613 24.7696L27.8279 24.803C27.3278 25.3031 26.8277 25.8032 26.4943 26.1367C26.2942 26.3034 26.1275 26.5368 25.9608 26.7701C25.8941 26.9702 25.8941 27.1703 25.8941 27.3703C25.8941 28.1038 25.9608 29.5042 25.9608 30.2044C25.9608 30.6378 25.9608 30.6378 25.9608 30.6378C26.0942 30.7045 26.2275 30.7379 26.3609 30.7712C26.4943 30.8045 26.661 30.8379 26.8277 30.8045C26.9944 30.7712 27.1611 30.7045 27.2945 30.6045C27.4612 30.4711 27.6279 30.3378 27.7279 30.171C27.8279 30.0043 27.928 29.8376 27.9947 29.6709C28.0947 29.4709 28.1614 29.2375 28.1947 29.0374C28.228 28.8707 28.2614 28.704 28.2614 28.5373C28.2947 28.3706 28.2947 28.2372 28.3614 28.0705V28.0371C28.3948 27.7704 28.5281 27.5037 28.7282 27.3036C28.9616 27.1036 29.2617 27.0035 29.5951 27.0369C29.8952 27.0702 30.1619 27.2036 30.3953 27.4037L37.6639 33.2385C38.3307 32.9384 38.8975 32.405 39.2309 31.7381C39.4643 31.1713 39.9311 30.7712 40.4979 30.5712L37.7639 23.4359ZM45.8327 30.8379L41.8316 20.5685C41.7649 20.4351 41.6316 20.3685 41.4982 20.4018L38.1973 21.7021C38.064 21.7688 37.9973 21.9022 38.0306 22.0356L41.3648 30.6378V30.6712L41.9983 32.3049C42.0317 32.3716 42.065 32.405 42.1317 32.4383C42.1984 32.4716 42.2651 32.4716 42.3318 32.4383L45.6326 31.138C45.7327 31.1046 45.7993 31.0046 45.7993 30.8712C45.8327 30.9046 45.8327 30.8712 45.8327 30.8379ZM43.4987 30.1377L43.4654 30.2044C43.3654 30.3711 43.132 30.4378 42.9319 30.3378C42.7652 30.2377 42.6985 30.0043 42.7986 29.8376L42.8319 29.7709C42.9319 29.6042 43.1653 29.5375 43.3654 29.6376C43.5321 29.7376 43.5988 29.971 43.4987 30.1377ZM27.2611 35.5725C27.2278 35.4391 27.1611 35.3057 27.0611 35.1724C26.961 35.039 26.8277 34.9723 26.6943 34.9056C26.5276 34.8389 26.2942 34.8056 26.1275 34.9056L24.5604 36.8395C24.3604 37.0729 24.327 37.3729 24.4604 37.6397C24.5271 37.7397 24.5938 37.8397 24.6938 37.9064C24.7938 37.9731 24.8938 38.0398 24.9939 38.0731C25.0605 38.1065 25.1272 38.1065 25.2273 38.1065C25.4607 38.1065 25.694 38.0064 25.8274 37.8064L25.8941 37.7397L27.0944 36.2393C27.2611 36.0393 27.2945 35.8059 27.2611 35.5725ZM28.4281 37.1729C28.3281 37.0395 28.1947 36.9062 28.028 36.8395C27.8946 36.7728 27.7613 36.7394 27.6279 36.7728L26.5609 38.1065C26.5276 38.2398 26.5943 38.4065 26.661 38.5066C26.761 38.6399 26.861 38.74 26.9944 38.8067C27.1278 38.8733 27.2945 38.9067 27.4612 38.9067C27.6946 38.9067 27.928 38.8067 28.0947 38.6066L28.3948 38.2065C28.5281 38.0398 28.6282 37.8064 28.5948 37.6063C28.5948 37.473 28.5281 37.3063 28.4281 37.1729ZM22.1931 21.8689L18.9589 20.4351C18.8256 20.3685 18.6589 20.4351 18.5922 20.5685L14.191 30.6712C14.1577 30.7379 14.1577 30.8045 14.191 30.8712C14.191 30.9379 14.2577 30.9713 14.3244 31.0046L17.5586 32.4383C17.6919 32.505 17.8587 32.4383 17.9253 32.3049L22.3598 22.2356C22.3598 22.2023 22.3932 22.1689 22.3932 22.1356C22.3598 22.0022 22.2932 21.9022 22.1931 21.8689ZM16.9251 30.1377L16.8917 30.2044C16.7917 30.3711 16.5583 30.4378 16.3583 30.3378C16.1915 30.2377 16.1249 30.0043 16.2249 29.8376L16.2916 29.7709C16.3916 29.6042 16.625 29.5375 16.7917 29.6376C16.9251 29.7043 16.9918 29.8376 16.9918 29.971C16.9918 30.0377 16.9584 30.1044 16.9251 30.1377ZM23.6602 32.605C23.5935 32.505 23.4601 32.405 23.3268 32.3383C23.16 32.2716 22.9933 32.2383 22.8266 32.2383C22.5599 32.2383 22.2932 32.3716 22.0931 32.5717L21.3929 33.4719C21.2595 33.6386 21.1929 33.8387 21.2262 34.0721C21.2595 34.2388 21.3262 34.3721 21.4263 34.5055C21.5263 34.6389 21.6597 34.7389 21.8264 34.8056C21.9597 34.8723 22.1264 34.9056 22.2932 34.8723L23.7935 33.0051C23.7602 32.8718 23.7602 32.705 23.6602 32.605Z" fill="#347DFF"/>
</svg>
