<svg width="14" height="14" viewBox="0 0 14 14" fill="none" xmlns="http://www.w3.org/2000/svg">
<path fill-rule="evenodd" clip-rule="evenodd" d="M2.59973 1.40061C2.44256 1.24882 2.23206 1.16482 2.01356 1.16672C1.79507 1.16862 1.58606 1.25626 1.43155 1.41076C1.27704 1.56527 1.1894 1.77428 1.1875 1.99278C1.18561 2.21128 1.2696 2.42178 1.4214 2.57895L5.83223 6.98978L1.4214 11.4006C1.34181 11.4775 1.27832 11.5694 1.23465 11.6711C1.19097 11.7728 1.16799 11.8821 1.16702 11.9928C1.16606 12.1034 1.18715 12.2132 1.22905 12.3156C1.27095 12.418 1.33283 12.511 1.41107 12.5893C1.48931 12.6675 1.58236 12.7294 1.68477 12.7713C1.78718 12.8132 1.89692 12.8343 2.00757 12.8333C2.11822 12.8324 2.22757 12.8094 2.32924 12.7657C2.43091 12.722 2.52286 12.6585 2.59973 12.5789L7.01057 8.16811L11.4214 12.5789C11.5786 12.7307 11.7891 12.8147 12.0076 12.8128C12.2261 12.8109 12.4351 12.7233 12.5896 12.5688C12.7441 12.4143 12.8317 12.2053 12.8336 11.9868C12.8355 11.7683 12.7515 11.5578 12.5997 11.4006L8.1889 6.98978L12.5997 2.57895C12.7515 2.42178 12.8355 2.21128 12.8336 1.99278C12.8317 1.77428 12.7441 1.56527 12.5896 1.41076C12.4351 1.25626 12.2261 1.16862 12.0076 1.16672C11.7891 1.16482 11.5786 1.24882 11.4214 1.40061L7.01057 5.81145L2.59973 1.40061Z" fill="#666666"/>
</svg>
