<svg width="35" height="34" viewBox="0 0 35 34" fill="none" xmlns="http://www.w3.org/2000/svg">
<rect x="1" y="0.5" width="33" height="33" rx="16.5" stroke="#FAFAFA"/>
<path d="M18.3337 14.7778H23.3337L22.7781 17H18.3337V27H16.1114V17H11.667V14.7778H16.1114V12.6978C16.1114 10.7167 16.3181 9.99778 16.7048 9.27333C17.0837 8.55756 17.669 7.97223 18.3848 7.59333C19.1092 7.20667 19.8281 7 21.8092 7C22.3892 7 22.8981 7.05556 23.3337 7.16667V9.22222H21.8092C20.3381 9.22222 19.8903 9.30889 19.4325 9.55333C19.104 9.72501 18.836 9.99338 18.6648 10.3222C18.4203 10.7789 18.3337 11.2267 18.3337 12.6978V14.7778Z" fill="#FAFAFA"/>
</svg>
