<svg width="20" height="20" viewBox="0 0 20 20" fill="none" xmlns="http://www.w3.org/2000/svg">
<g id="heart">
<path id="Union" d="M10.0053 5.46741L9.65353 5.11964C8.55458 4.03305 7.44456 3.53098 6.42141 3.45683L10.0053 5.46741ZM10.0053 5.46741L10.3568 5.11946M10.0053 5.46741L10.3568 5.11946M10.3568 5.11946C11.4555 4.03196 12.564 3.53246 13.5855 3.46047L13.586 3.46043M10.3568 5.11946L13.586 3.46043M13.586 3.46043C14.739 3.37807 15.765 3.84159 16.5187 4.59314L16.5187 4.59315M13.586 3.46043L16.5187 4.59315M16.5187 4.59315C18.0227 6.09275 18.4554 8.75924 16.6406 10.5751L16.6379 10.5776L16.6361 10.5793M16.5187 4.59315L16.6361 10.5793M3.03839 10.9498L9.60508 16.8987C9.7146 16.998 9.85719 17.0531 10.0051 17.0531L3.03839 10.9498ZM3.03839 10.9498C3.03107 10.9433 3.02393 10.9365 3.01696 10.9296L3.03839 10.9498ZM16.6361 10.5793L10.0694 16.5281L10.0691 16.5284M16.6361 10.5793L10.0691 16.5284M10.0691 16.5284C10.0516 16.5443 10.0287 16.5531 10.0051 16.5531C9.98141 16.5531 9.9586 16.5443 9.94108 16.5284L9.94077 16.5281M10.0691 16.5284L9.94077 16.5281M9.94077 16.5281L3.37408 10.5793L3.37408 10.5793M9.94077 16.5281L3.37408 10.5793M3.37408 10.5793L3.37252 10.5779M3.37408 10.5793L3.37252 10.5779M3.37252 10.5779L3.36934 10.5749C1.54296 8.74717 1.97478 6.08113 3.48233 4.58439L3.48235 4.58437M3.37252 10.5779L3.48235 4.58437M3.48235 4.58437C4.23783 3.83422 5.26624 3.37338 6.42132 3.45682L3.48235 4.58437Z" stroke="#666666"/>
</g>
</svg>
