<svg width="20" height="20" viewBox="0 0 20 20" fill="none" xmlns="http://www.w3.org/2000/svg">
<g id="heart">
<path id="Union" fill-rule="evenodd" clip-rule="evenodd" d="M6.4572 2.95831C7.62387 3.04284 8.84055 3.61308 10.0048 4.76427C11.1691 3.61189 12.3846 3.04403 13.5501 2.96189C14.8668 2.86784 16.0299 3.39998 16.8715 4.23927C18.5263 5.88928 19.0465 8.8762 16.993 10.9298C16.986 10.9367 16.9788 10.9435 16.9715 10.95L10.4048 16.8988C10.2953 16.9982 10.1527 17.0533 10.0048 17.0533C9.85695 17.0533 9.71435 16.9982 9.60483 16.8988L3.03814 10.95C3.03083 10.9434 3.02369 10.9367 3.01671 10.9298C0.952418 8.86548 1.46909 5.87857 3.12981 4.22975C3.97386 3.39165 5.13934 2.86308 6.4572 2.95831Z" fill="#347DFF"/>
</g>
</svg>
