<svg width="12" height="12" viewBox="0 0 12 12" fill="none" xmlns="http://www.w3.org/2000/svg">
<path fill-rule="evenodd" clip-rule="evenodd" d="M6.0007 1.20001C5.85992 1.20007 5.72205 1.24013 5.60316 1.31551C5.48426 1.3909 5.38923 1.49851 5.32913 1.62582L4.1946 3.91558C4.1916 3.92098 4.18875 3.92646 4.18603 3.93201C4.18053 3.93283 4.17505 3.93379 4.1696 3.93487L1.67122 4.30495C1.52953 4.3187 1.39477 4.37287 1.28299 4.46101C1.1712 4.54915 1.08708 4.66754 1.04064 4.80211C0.994206 4.93668 0.987405 5.08176 1.02105 5.22008C1.05469 5.3584 1.12736 5.48415 1.23041 5.58236L3.05937 7.3463L3.06365 7.34987C3.06624 7.3523 3.06818 7.35534 3.0693 7.35871C3.07042 7.36207 3.07069 7.36566 3.07008 7.36916V7.37202L2.63428 9.92112V9.92184C2.61036 10.06 2.62566 10.2022 2.67846 10.3321C2.73125 10.4621 2.81942 10.5746 2.93296 10.657C3.04649 10.7394 3.18084 10.7882 3.32076 10.7981C3.46068 10.8079 3.60055 10.7784 3.72451 10.7127L5.97498 9.52318C5.98309 9.51964 5.99185 9.51781 6.0007 9.51781C6.00955 9.51781 6.0183 9.51964 6.02642 9.52318L8.27689 10.712C8.40078 10.7781 8.54074 10.808 8.68082 10.7984C8.82089 10.7888 8.95546 10.74 9.06917 10.6577C9.18289 10.5753 9.27117 10.4627 9.32398 10.3326C9.37678 10.2025 9.39198 10.0602 9.36783 9.92184L8.93202 7.3713V7.36916C8.9306 7.3663 8.93131 7.36202 8.93202 7.35916C8.9331 7.35562 8.93507 7.35242 8.93774 7.34987L8.94203 7.3463L10.7703 5.58164C10.8731 5.4834 10.9456 5.35771 10.9791 5.21949C11.0126 5.08128 11.0057 4.93635 10.9593 4.80192C10.9129 4.66749 10.8289 4.54921 10.7172 4.46111C10.6056 4.37302 10.471 4.31882 10.3295 4.30495L7.83179 3.93487C7.82634 3.93379 7.82086 3.93283 7.81536 3.93201C7.81265 3.92646 7.80979 3.92098 7.80679 3.91558L6.67227 1.62582C6.61216 1.49851 6.51713 1.3909 6.39824 1.31551C6.27934 1.24013 6.14148 1.20007 6.0007 1.20001Z" fill="#F6B000"/>
</svg>
