<svg width="18" height="18" viewBox="0 0 18 18" fill="none" xmlns="http://www.w3.org/2000/svg">
<path d="M8.99996 14.833L15.6666 14.833M2.33329 3.16634L4.83329 3.16634M2.33329 14.833L5.66663 14.833M8.16663 3.16634L15.6666 3.16634M13.1666 8.99967L15.6666 8.99967M2.33329 8.99967L9.83329 8.99967" stroke="#FAFAFA" stroke-linecap="round"/>
<path d="M5.66667 14.8333C5.66667 13.9129 6.41286 13.1667 7.33333 13.1667C8.25381 13.1667 9 13.9129 9 14.8333C9 15.7538 8.25381 16.5 7.33333 16.5C6.41286 16.5 5.66667 15.7538 5.66667 14.8333Z" fill="#FAFAFA"/>
<path d="M9.83329 9.00033C9.83329 8.07985 10.5795 7.33366 11.5 7.33366C12.4204 7.33366 13.1666 8.07985 13.1666 9.00033C13.1666 9.9208 12.4204 10.667 11.5 10.667C10.5795 10.667 9.83329 9.9208 9.83329 9.00033Z" fill="#FAFAFA"/>
<path d="M4.83329 3.16634C4.83329 2.24587 5.57948 1.49967 6.49996 1.49967C7.42043 1.49967 8.16663 2.24587 8.16663 3.16634C8.16663 4.08682 7.42043 4.83301 6.49996 4.83301C5.57948 4.83301 4.83329 4.08682 4.83329 3.16634Z" fill="#FAFAFA"/>
</svg>
