<svg width="20" height="18" viewBox="0 0 20 18" fill="none" xmlns="http://www.w3.org/2000/svg">
<g id="Group">
<path id="Vector" d="M0 7.23844C0 8.3904 0.931965 9.32236 2.08392 9.32236C3.23588 9.32236 4.16784 8.3904 4.16784 7.23844C4.16784 5.78649 2.08392 3.0826 2.08392 3.0826C2.08392 3.0826 0 5.7225 0 7.23844ZM2.5279 8.67438C2.5279 8.71038 2.50391 8.74238 2.46791 8.75038C2.35591 8.77838 2.24392 8.79038 2.12792 8.79038C1.31195 8.79038 0.647976 8.1264 0.647976 7.31044C0.647976 7.19844 0.683974 6.99445 0.847968 6.66246C0.863967 6.63046 0.903966 6.61446 0.939965 6.62246C0.975963 6.63446 0.999962 6.66646 0.995963 6.70646C0.991963 6.73846 0.991963 6.77046 0.991963 6.79446C0.991963 7.67042 1.61594 8.42639 2.47191 8.59839C2.50391 8.61039 2.5279 8.63839 2.5279 8.67438Z" fill="#666666"/>
<path id="Vector_2" d="M19.9873 13.3542C19.9273 12.7302 19.6633 12.1663 19.3233 11.6903L19.3873 11.6263C19.4553 11.5543 19.4553 11.4423 19.3833 11.3743L18.4274 10.4383C18.5594 10.2983 18.5514 10.0783 18.4114 9.95035L14.1035 5.9385L12.9876 4.90254C12.9436 4.85854 12.8876 4.82654 12.8276 4.80654L8.77173 3.37459C8.61174 3.3186 8.44374 3.3306 8.29575 3.39459C8.24375 3.41859 8.19575 3.45459 8.15576 3.49459L5.21987 0.802691L2.08798 0.798691L2.08398 2.16264L4.68789 2.16664L7.23979 4.50655C7.11979 4.67854 7.1158 4.91854 7.25579 5.07853C7.26779 5.09053 7.27979 5.10253 7.29179 5.11453L9.89969 7.53844C9.99169 7.62643 10.0437 7.74643 10.0437 7.87442L10.0357 10.1023C10.0357 10.2303 10.0877 10.3503 10.1797 10.4383L11.1356 11.3303C11.2036 11.3943 11.2916 11.4343 11.3876 11.4503L13.1996 11.6863C13.2676 11.6943 13.3316 11.7183 13.3876 11.7543L15.4515 13.0822C15.6355 13.2022 15.8835 13.1702 16.0315 13.0102L16.8914 12.0903L17.1834 11.7743L18.1074 12.6782C18.1794 12.7462 18.2914 12.7462 18.3594 12.6742C18.5234 12.9542 18.6234 13.2262 18.6474 13.4862C18.6874 13.9022 18.5394 14.2942 18.1914 14.6862C17.3794 15.6101 15.5195 15.9901 12.6556 15.8141C12.3276 15.7941 11.9956 15.7541 11.6516 15.7061L11.3116 17.0181C11.7276 17.0781 12.1516 17.1301 12.5756 17.1581C15.9195 17.3621 18.0874 16.8461 19.2033 15.5741C19.7993 14.8982 20.0633 14.1542 19.9873 13.3542ZM15.6475 9.98234L14.7475 10.9583C14.6155 11.0983 14.3995 11.1143 14.2515 10.9903L14.0595 10.8303C13.9795 10.7623 13.8795 10.7223 13.7755 10.7103L11.7796 10.4743C11.6676 10.4623 11.5676 10.4143 11.4836 10.3343L11.1556 10.0183C11.0556 9.92235 10.9996 9.79435 10.9956 9.65836L10.9397 7.05445C10.9357 6.78246 11.1476 6.55447 11.4236 6.54247L11.8836 6.52647C12.1836 6.51448 12.4796 6.62247 12.7036 6.82646L15.6235 9.46636C15.7715 9.60636 15.7835 9.83435 15.6475 9.98234Z" fill="#666666"/>
<path id="Vector_3" d="M12.1713 6.83847C12.0873 6.81847 12.0033 6.80647 11.9153 6.81047L11.4553 6.82647C11.3313 6.83047 11.2354 6.93447 11.2354 7.05847L11.2474 7.59844L11.5193 7.59444C11.8673 7.58644 12.2073 7.69444 12.4873 7.89443L14.2992 9.19438C14.4992 9.33838 14.7672 9.35838 14.9872 9.24638L12.5433 7.03847C12.4353 6.94247 12.3073 6.87447 12.1713 6.83847Z" fill="#666666"/>
</g>
</svg>
