<svg width="20" height="20" viewBox="0 0 20 20" fill="none" xmlns="http://www.w3.org/2000/svg">
<path fill-rule="evenodd" clip-rule="evenodd" d="M18.3337 16.5476C18.3337 16.7821 18.2875 17.0143 18.1977 17.231C18.108 17.4476 17.9765 17.6445 17.8106 17.8103C17.6448 17.9761 17.448 18.1077 17.2313 18.1974C17.0147 18.2872 16.7824 18.3333 16.5479 18.3333H3.45271C3.2182 18.3333 2.986 18.2872 2.76934 18.1974C2.55269 18.1077 2.35583 17.9761 2.19002 17.8103C2.0242 17.6445 1.89266 17.4476 1.80292 17.231C1.71318 17.0143 1.66699 16.7821 1.66699 16.5476V3.45239C1.66699 2.97879 1.85513 2.52458 2.19002 2.1897C2.5249 1.85481 2.97911 1.66667 3.45271 1.66667L16.5479 1.66667C17.0215 1.66667 17.4757 1.85481 17.8106 2.1897C18.1455 2.52458 18.3337 2.97879 18.3337 3.45239V16.5476ZM6.13128 4.04762C5.57874 4.04762 5.04884 4.26712 4.65814 4.65782C4.26744 5.04852 4.04794 5.57842 4.04794 6.13096C4.04794 6.68349 4.26744 7.2134 4.65814 7.6041C5.04884 7.9948 5.57874 8.21429 6.13128 8.21429C6.68381 8.21429 7.21372 7.9948 7.60442 7.6041C7.99512 7.2134 8.21461 6.68349 8.21461 6.13096C8.21461 5.57842 7.99512 5.04852 7.60442 4.65782C7.21372 4.26712 6.68381 4.04762 6.13128 4.04762ZM11.6682 9.52262L4.64318 16.5476H16.5479V11.7857L13.2027 9.39524C12.973 9.23113 12.6925 9.15396 12.4112 9.17751C12.1299 9.20106 11.8662 9.32379 11.667 9.52381L11.6682 9.52262Z" fill="#FAFAFA"/>
</svg>
