<svg width="24" height="24" viewBox="0 0 24 24" fill="none" xmlns="http://www.w3.org/2000/svg">
<g id="heart">
<path id="Union" fill-rule="evenodd" clip-rule="evenodd" d="M7.74884 3.54964C9.14884 3.65106 10.6088 4.33535 12.006 5.71679C13.4031 4.33392 14.8617 3.65249 16.2603 3.55392C17.8403 3.44106 19.236 4.07964 20.246 5.08679C22.2318 7.06679 22.856 10.6511 20.3917 13.1154C20.3834 13.1237 20.3748 13.1318 20.366 13.1397L12.486 20.2783C12.3546 20.3975 12.1835 20.4636 12.006 20.4636C11.8285 20.4636 11.6574 20.3975 11.526 20.2783L3.64596 13.1397C3.63719 13.1318 3.62862 13.1237 3.62025 13.1154C1.1431 10.6382 1.7631 7.05394 3.75596 5.07536C4.76883 4.06964 6.1674 3.43535 7.74884 3.54964Z" fill="#FAFAFA"/>
</g>
</svg>
