<svg width="20" height="14" viewBox="0 0 20 14" fill="none" xmlns="http://www.w3.org/2000/svg">
<g id="Group">
<path id="Vector" d="M9.99984 0.325882C4.47703 0.325882 0 4.80287 0 10.326C0 11.1089 0.0901172 11.8705 0.260312 12.6014C0.345703 12.9674 0.304844 12.7523 0.304844 12.7523C0.465078 13.2988 0.966016 13.6741 1.53547 13.6741H18.4609C19.0317 13.6741 19.5339 13.2968 19.6929 12.7487C19.6929 12.7487 19.6659 12.9269 19.7534 12.5392C19.9146 11.8272 20 11.0866 20 10.326C20 4.80287 15.5227 0.325882 9.99984 0.325882ZM13.802 2.59366C13.9602 2.31975 14.3113 2.22565 14.5852 2.38389C14.8598 2.54244 14.9536 2.89283 14.795 3.16741C14.6364 3.44131 14.2864 3.53576 14.0121 3.37686C13.7375 3.21893 13.6438 2.86823 13.802 2.59366ZM9.99984 1.15526C10.3166 1.15526 10.5731 1.4119 10.5731 1.72869C10.5731 2.04483 10.3166 2.30178 9.99984 2.30178C9.68305 2.30178 9.42656 2.04483 9.42656 1.72869C9.42656 1.4119 9.68305 1.15526 9.99984 1.15526ZM1.40246 10.8991C1.08617 10.8991 0.82918 10.6428 0.82918 10.326C0.82918 10.0092 1.08613 9.75225 1.40246 9.75225C1.7191 9.75225 1.97605 10.0092 1.97605 10.326C1.97609 10.6428 1.7191 10.8991 1.40246 10.8991ZM3.05094 6.31409C2.89254 6.58795 2.54199 6.68237 2.26742 6.52385C1.99352 6.3653 1.8993 6.01491 2.05766 5.74065C2.21609 5.46639 2.56656 5.37198 2.84117 5.53057C3.11512 5.68877 3.20934 6.04018 3.05094 6.31409ZM5.9877 3.37682C5.71363 3.53573 5.36309 3.44131 5.20469 3.16705C5.04629 2.89284 5.14004 2.54244 5.41445 2.38389C5.68852 2.22565 6.03922 2.31975 6.19797 2.59366C6.35586 2.86787 6.26211 3.21893 5.9877 3.37682ZM11.5669 10.5441C11.4605 11.3153 10.8003 11.9097 9.99984 11.9097C9.12523 11.9097 8.41617 11.2006 8.41617 10.326C8.41617 9.45112 9.12523 8.74205 9.99984 8.74205C10.1797 8.74205 10.3522 8.77362 10.5134 8.82881C11.1357 9.04221 11.5835 9.63127 11.5835 10.326C11.5835 10.4002 11.5768 10.4723 11.5669 10.5441ZM16.3441 4.87139L12.004 9.97135C11.8766 9.25233 11.3691 8.64436 10.6604 8.401C10.5433 8.3608 10.4243 8.33248 10.3046 8.31424L15.7899 4.27534C15.9873 4.1294 16.239 4.13276 16.3782 4.2833C16.5186 4.43225 16.5039 4.68389 16.3441 4.87139ZM17.7322 6.52385C17.4576 6.68241 17.107 6.58866 16.9487 6.31409C16.7905 6.04018 16.8845 5.68877 17.1585 5.53057C17.4331 5.37201 17.7838 5.46639 17.942 5.74065C18.1002 6.01491 18.0062 6.3653 17.7322 6.52385ZM18.5972 10.8991C18.2804 10.8991 18.0238 10.6428 18.0238 10.326C18.0238 10.0092 18.2804 9.75225 18.5972 9.75225C18.914 9.75225 19.1706 10.0092 19.1706 10.326C19.1706 10.6428 18.914 10.8991 18.5972 10.8991Z" fill="#666666"/>
</g>
</svg>
