<svg width="18" height="20" viewBox="0 0 18 20" fill="none" xmlns="http://www.w3.org/2000/svg">
<g id="Group">
<path id="Vector" d="M11.1683 13.8639L11.3918 13.4329C11.4627 13.2944 11.5287 13.1583 11.5908 13.0195C11.7126 12.7431 11.8121 12.4625 11.8748 12.1852C12.0024 11.6254 11.936 11.1119 11.5957 10.7316C11.2554 10.3438 10.6935 10.0836 10.1126 9.90215C8.87616 9.54629 7.61171 9.15027 6.38831 8.68578C6.0812 8.56918 5.77558 8.44805 5.47116 8.31898C5.17132 8.19297 4.84624 8.04566 4.54882 7.84625C4.2548 7.6475 3.94644 7.38266 3.78726 6.9766C3.70839 6.77691 3.68769 6.55105 3.71421 6.34586C3.74097 6.14012 3.80796 5.95289 3.89109 5.78605C4.06398 5.44422 4.27613 5.19766 4.4673 4.93313L5.06242 4.15691L6.26511 2.6209L8.31281 0.0447656L6.75179 0C6.75179 0 3.19609 3.26988 1.60894 5.3334C0.229095 7.12691 0.982766 8.71164 3.47886 9.77762C5.58562 10.6777 7.55753 11.3745 7.55753 11.3745C7.89726 11.5504 8.13894 11.8588 8.21929 12.2186C8.29964 12.5787 8.21077 12.9534 7.97546 13.2459L2.54374 20H7.963L10.2679 15.5911L11.1683 13.8639Z" fill="#666666"/>
<path id="Vector_2" d="M16.382 10.1962C15.6255 8.93083 14.3306 8.03833 12.8305 7.74822L7.51599 6.62775C7.29439 6.58513 7.1081 6.4445 7.01404 6.24907C6.91998 6.05396 6.93002 5.82775 7.04053 5.64056L10.5734 0.10931L8.85264 0.0600128L6.67709 2.93782L5.5149 4.49876L4.94353 5.28322C4.75967 5.54712 4.55693 5.80802 4.44521 6.05212C4.32623 6.30447 4.29639 6.54497 4.38224 6.74462C4.46502 6.94919 4.66744 7.13943 4.91158 7.29228C5.15877 7.44872 5.4306 7.5665 5.73197 7.68462C6.02846 7.80181 6.3292 7.91294 6.63209 8.01947C7.84908 8.44712 9.0749 8.799 10.343 9.13115C10.9932 9.32474 11.6815 9.58407 12.2297 10.1625C12.497 10.4519 12.6963 10.8321 12.7721 11.2257C12.8501 11.6196 12.8245 12.0074 12.7563 12.366C12.6845 12.7243 12.5722 13.0609 12.4403 13.3818C12.3737 13.5413 12.3018 13.6993 12.2282 13.8515L12.0139 14.2907L11.1552 16.0407L9.20662 20H14.6998L16.7776 14.3498C17.2827 12.9757 17.1384 11.4616 16.382 10.1962Z" fill="#666666"/>
</g>
</svg>
