<svg width="16" height="16" viewBox="0 0 16 16" fill="none" xmlns="http://www.w3.org/2000/svg">
<path fill-rule="evenodd" clip-rule="evenodd" d="M7.99498 1.33337C10.4919 1.33337 12.5718 3.41323 12.5718 5.90924C12.5718 6.72442 12.2918 7.52817 11.9004 8.25574C11.5071 8.98711 10.9871 9.66897 10.471 10.2499C10.021 10.7553 9.53706 11.2293 9.02253 11.6688C8.8545 11.8128 8.68105 11.9504 8.50256 12.0812C8.44236 12.1249 8.38041 12.1662 8.31686 12.205C8.26414 12.2363 8.20868 12.2628 8.15116 12.284C8.02379 12.3251 7.88539 12.3149 7.76547 12.2555C7.73349 12.2403 7.70234 12.2234 7.67215 12.205C7.60823 12.1653 7.54596 12.1231 7.48549 12.0783C7.30729 11.9469 7.13416 11.8087 6.96648 11.6641C6.45253 11.2222 5.96893 10.7463 5.51897 10.2394C5.00281 9.65659 4.48285 8.97283 4.0905 8.24431C3.6991 7.51865 3.41817 6.71775 3.41817 5.90924C3.41817 3.41323 5.49802 1.33337 7.99498 1.33337ZM7.99498 7.27581C7.81552 7.27581 7.63782 7.24046 7.47202 7.17178C7.30622 7.10311 7.15557 7.00245 7.02867 6.87555C6.90177 6.74865 6.80111 6.598 6.73244 6.4322C6.66376 6.2664 6.62841 6.0887 6.62841 5.90924C6.62841 5.72978 6.66376 5.55207 6.73244 5.38627C6.80111 5.22047 6.90177 5.06983 7.02867 4.94293C7.15557 4.81603 7.30622 4.71537 7.47202 4.64669C7.63782 4.57802 7.81552 4.54267 7.99498 4.54267C8.35742 4.54267 8.70501 4.68665 8.96129 4.94293C9.21757 5.19921 9.36155 5.5468 9.36155 5.90924C9.36155 6.27167 9.21757 6.61927 8.96129 6.87555C8.70501 7.13183 8.35742 7.27581 7.99498 7.27581ZM10.9472 11.0051C11.1224 10.8079 11.2976 10.6013 11.4709 10.3861H12.7499C12.9403 10.3861 13.1118 10.5003 13.1879 10.6746L14.6136 14.0029C14.6446 14.0754 14.6572 14.1544 14.6502 14.233C14.6432 14.3115 14.6168 14.387 14.5733 14.4528C14.5299 14.5186 14.4708 14.5726 14.4014 14.6099C14.3319 14.6473 14.2543 14.6668 14.1755 14.6667H1.81447C1.73564 14.6668 1.65802 14.6473 1.58858 14.6099C1.51914 14.5726 1.46006 14.5186 1.41664 14.4528C1.37321 14.387 1.3468 14.3115 1.33978 14.233C1.33276 14.1544 1.34535 14.0754 1.37641 14.0029L2.80297 10.6746C2.83971 10.5889 2.90081 10.5159 2.97869 10.4646C3.05656 10.4133 3.14778 10.386 3.24104 10.3861H4.53142C4.69998 10.5956 4.8714 10.7984 5.04281 10.9917C5.67324 11.7022 6.30939 12.3021 6.80459 12.7259C7.05219 12.9383 7.26837 13.1087 7.43407 13.2287C7.51597 13.2887 7.5912 13.3392 7.65501 13.3782C7.71043 13.4155 7.77109 13.4444 7.83499 13.4639C7.96505 13.5067 8.10672 13.4964 8.22925 13.4354C8.26734 13.4182 8.30258 13.3973 8.33401 13.3792C8.40935 13.3331 8.48274 13.2838 8.55399 13.2316C8.71969 13.1116 8.93491 12.9421 9.18347 12.7316C9.67867 12.3107 10.3167 11.7136 10.9462 11.0051H10.9472Z" fill="#666666"/>
</svg>
