<svg width="48" height="48" viewBox="0 0 48 48" fill="none" xmlns="http://www.w3.org/2000/svg">
<g id="material-symbols-light:mail">
<path id="Vector" d="M4.30667 42.6666C3.08 42.6666 2.056 42.256 1.23467 41.4346C0.411556 40.6115 0 39.5866 0 38.36V9.63998C0 8.41331 0.411556 7.38931 1.23467 6.56798C2.056 5.74487 3.08 5.33331 4.30667 5.33331H43.6933C44.92 5.33331 45.944 5.74487 46.7653 6.56798C47.5884 7.38931 48 8.41331 48 9.63998V38.36C48 39.5866 47.5893 40.6106 46.768 41.432C45.9449 42.2551 44.92 42.6666 43.6933 42.6666H4.30667ZM24 24.3066L45.3333 10.36L44.512 7.99998L24 21.3333L3.488 7.99998L2.66667 10.36L24 24.3066Z" fill="#404040"/>
</g>
</svg>
