<svg width="48" height="54" viewBox="0 0 48 54" fill="none" xmlns="http://www.w3.org/2000/svg">
<path id="Vector" d="M14.2721 49.2533C15.4325 50.739 16.9111 51.9383 18.5963 52.7606C20.2816 53.5828 22.1293 54.0066 24 53.9999C25.8707 54.0066 27.7184 53.5828 29.4037 52.7606C31.0889 51.9383 32.5675 50.739 33.7279 49.2533C27.2722 50.1394 20.7278 50.1394 14.2721 49.2533ZM41.9999 18.9V20.8008C41.9999 23.0823 42.6399 25.3125 43.8452 27.2106L46.7998 31.8627C49.4958 36.1124 47.4372 41.8877 42.7465 43.2296C30.49 46.7449 17.51 46.7449 5.25346 43.2296C0.562828 41.8877 -1.49582 36.1124 1.20016 31.8627L4.1548 27.2106C5.36433 25.2972 6.00574 23.0725 6.00279 20.8008V18.9C6.00279 8.46179 14.0614 0 24 0C33.9386 0 41.9999 8.46179 41.9999 18.9Z" fill="#85B1FF"/>
</svg>
