<svg width="48" height="48" viewBox="0 0 48 48" fill="none" xmlns="http://www.w3.org/2000/svg">
<g id="logos:reddit-icon" clip-path="url(#clip0_7404_13978)">
<path id="Vector" d="M24 48C37.2548 48 48 37.2548 48 24C48 10.7452 37.2548 0 24 0C10.7452 0 0 10.7452 0 24C0 37.2548 10.7452 48 24 48Z" fill="#FF4500"/>
<path id="Vector_2" d="M39.9654 24.2287C39.9654 22.2832 38.3921 20.738 36.4747 20.738C35.569 20.7368 34.6978 21.0854 34.0429 21.711C31.6395 19.994 28.3489 18.8784 24.6866 18.7354L26.2886 11.2389L31.4961 12.3545C31.5536 13.6708 32.6406 14.7296 33.9857 14.7296C35.3589 14.7296 36.4747 13.614 36.4747 12.24C36.4747 10.8667 35.3591 9.75092 33.9857 9.75092C33.0129 9.75092 32.1542 10.3232 31.7537 11.153L25.9457 9.92267C25.7739 9.89379 25.6022 9.92267 25.4876 10.0085C25.3446 10.0944 25.2589 10.2373 25.2306 10.409L23.4561 18.7637C19.7366 18.8784 16.3888 19.994 13.9569 21.7397C13.3019 21.1141 12.4306 20.7656 11.5249 20.7669C9.57918 20.7669 8.03418 22.3402 8.03418 24.2576C8.03418 25.688 8.89237 26.8895 10.0944 27.4337C10.0361 27.7835 10.0073 28.1376 10.0086 28.4923C10.0086 33.8709 16.2748 38.249 24 38.249C31.7254 38.249 37.9916 33.8998 37.9916 28.4923C37.9914 28.1377 37.9627 27.7837 37.9057 27.4337C39.1072 26.8895 39.9654 25.6592 39.9654 24.2287ZM15.9883 26.7178C15.9883 25.3445 17.1039 24.2287 18.4779 24.2287C19.8512 24.2287 20.967 25.3444 20.967 26.7178C20.967 28.0912 19.8514 29.2074 18.4779 29.2074C17.1041 29.2355 15.9883 28.0912 15.9883 26.7178ZM29.9227 33.3274C28.206 35.0443 24.9441 35.1589 24 35.1589C23.0272 35.1589 19.7655 35.0154 18.0769 33.3274C17.8198 33.0699 17.8198 32.6692 18.0769 32.4118C18.3345 32.1547 18.735 32.1547 18.9926 32.4118C20.0801 33.4993 22.3691 33.8709 24 33.8709C25.6311 33.8709 27.9484 33.4991 29.007 32.4118C29.2646 32.1547 29.6651 32.1547 29.9227 32.4118C30.1515 32.6692 30.1515 33.0699 29.9227 33.3274ZM29.4647 29.2357C28.0912 29.2357 26.9756 28.1201 26.9756 26.7467C26.9756 25.3732 28.0912 24.2576 29.4647 24.2576C30.8385 24.2576 31.9541 25.3732 31.9541 26.7467C31.9541 28.091 30.8385 29.2357 29.4647 29.2357Z" fill="white"/>
</g>
<defs>
<clipPath id="clip0_7404_13978">
<rect width="48" height="48" fill="white"/>
</clipPath>
</defs>
</svg>
