<svg width="20" height="20" viewBox="0 0 20 20" fill="none" xmlns="http://www.w3.org/2000/svg">
<g id="Share">
<path id="Vector" d="M15.0202 13.4474C14.3843 13.4474 13.8154 13.6985 13.3803 14.0917L7.41475 10.6195C7.45658 10.427 7.49005 10.2346 7.49005 10.0338C7.49005 9.83299 7.45658 9.64055 7.41475 9.44812L13.3133 6.00936C13.7652 6.4277 14.3592 6.68707 15.0202 6.68707C16.4091 6.68707 17.5302 5.56592 17.5302 4.17703C17.5302 2.78814 16.4091 1.66699 15.0202 1.66699C13.6313 1.66699 12.5101 2.78814 12.5101 4.17703C12.5101 4.37784 12.5436 4.57027 12.5854 4.76271L6.68684 8.20146C6.23503 7.78312 5.64099 7.52375 4.98001 7.52375C3.59112 7.52375 2.46997 8.6449 2.46997 10.0338C2.46997 11.4227 3.59112 12.5438 4.98001 12.5438C5.64099 12.5438 6.23503 12.2845 6.68684 11.8661L12.644 15.3467C12.6022 15.5224 12.5771 15.7065 12.5771 15.8906C12.5771 17.2376 13.6731 18.3337 15.0202 18.3337C16.3672 18.3337 17.4633 17.2376 17.4633 15.8906C17.4633 14.5435 16.3672 13.4474 15.0202 13.4474Z" fill="#347DFF"/>
</g>
</svg>
