<svg width="20" height="20" viewBox="0 0 20 20" fill="none" xmlns="http://www.w3.org/2000/svg">
<g id="Share">
<path id="Vector" d="M15.0202 13.4472C14.3843 13.4472 13.8154 13.6982 13.3803 14.0915L7.41475 10.6192C7.45658 10.4268 7.49005 10.2344 7.49005 10.0336C7.49005 9.83276 7.45658 9.64032 7.41475 9.44788L13.3133 6.00913C13.7652 6.42747 14.3592 6.68684 15.0202 6.68684C16.4091 6.68684 17.5302 5.56569 17.5302 4.1768C17.5302 2.78791 16.4091 1.66676 15.0202 1.66676C13.6313 1.66676 12.5101 2.78791 12.5101 4.1768C12.5101 4.3776 12.5436 4.57004 12.5854 4.76248L6.68684 8.20123C6.23503 7.78289 5.64099 7.52352 4.98001 7.52352C3.59112 7.52352 2.46997 8.64467 2.46997 10.0336C2.46997 11.4225 3.59112 12.5436 4.98001 12.5436C5.64099 12.5436 6.23503 12.2842 6.68684 11.8659L12.644 15.3465C12.6022 15.5222 12.5771 15.7063 12.5771 15.8903C12.5771 17.2374 13.6731 18.3334 15.0202 18.3334C16.3672 18.3334 17.4633 17.2374 17.4633 15.8903C17.4633 14.5433 16.3672 13.4472 15.0202 13.4472Z" fill="#666666"/>
</g>
</svg>
