<svg width="12" height="12" viewBox="0 0 12 12" fill="none" xmlns="http://www.w3.org/2000/svg">
<path fill-rule="evenodd" clip-rule="evenodd" d="M6.71429 1.71429C6.71429 1.52485 6.63903 1.34316 6.50508 1.20921C6.37112 1.07525 6.18944 1 6 1C5.81056 1 5.62888 1.07525 5.49492 1.20921C5.36097 1.34316 5.28571 1.52485 5.28571 1.71429V5.28571H1.71429C1.52485 5.28571 1.34316 5.36097 1.20921 5.49492C1.07525 5.62888 1 5.81056 1 6C1 6.18944 1.07525 6.37112 1.20921 6.50508C1.34316 6.63903 1.52485 6.71429 1.71429 6.71429H5.28571V10.2857C5.28571 10.4752 5.36097 10.6568 5.49492 10.7908C5.62888 10.9247 5.81056 11 6 11C6.18944 11 6.37112 10.9247 6.50508 10.7908C6.63903 10.6568 6.71429 10.4752 6.71429 10.2857V6.71429H10.2857C10.4752 6.71429 10.6568 6.63903 10.7908 6.50508C10.9247 6.37112 11 6.18944 11 6C11 5.81056 10.9247 5.62888 10.7908 5.49492C10.6568 5.36097 10.4752 5.28571 10.2857 5.28571H6.71429V1.71429Z" fill="#347DFF"/>
</svg>
