<svg width="48" height="48" viewBox="0 0 48 48" fill="none" xmlns="http://www.w3.org/2000/svg">
<g id="snapchat-logo 1" clip-path="url(#clip0_7405_13998)">
<path id="Vector" d="M0.0185547 35.7912V35.7934C0.0472821 36.8589 0.056143 37.9306 0.235876 38.9896C0.426334 40.11 0.698592 41.2024 1.21802 42.2193C1.92025 43.5956 2.88467 44.7578 4.10204 45.7072C4.97608 46.3889 5.93089 46.9301 6.98784 47.2715C8.52904 47.7686 10.119 47.9591 11.7322 47.9685C12.7387 47.9748 13.7446 48 14.7514 47.9958C22.0634 47.965 29.3755 48.0486 36.6877 47.9507C37.658 47.9375 38.6124 47.8191 39.5647 47.645C41.3899 47.3109 43.003 46.5321 44.3831 45.3008C45.9916 43.8662 47.0768 42.1105 47.5667 39.9915C47.8872 38.6064 47.9674 37.2012 47.9812 35.791V35.5097C47.9812 35.4006 47.9396 11.5492 47.9358 11.234C47.9251 10.368 47.8613 9.50848 47.6989 8.65636C47.5015 7.61798 47.2225 6.60618 46.7253 5.66676C46.2002 4.67426 45.5426 3.78185 44.7292 3.00201C43.4832 1.80721 42.0453 0.962274 40.3714 0.515321C38.8595 0.111738 37.317 0.0223851 35.7633 0.0237841C35.7608 0.023411 35.7549 0.0076482 35.7546 0H12.2377C12.2372 0.00802128 12.2369 0.0160427 12.2364 0.0237841C11.3546 0.03992 10.4715 0.0332975 9.59419 0.142051C8.63313 0.261531 7.6813 0.44145 6.77163 0.777411C5.33881 1.30738 4.09392 2.13282 3.03055 3.23482C1.82577 4.48334 0.976538 5.92726 0.525948 7.60865C0.123951 9.10882 0.0364633 10.6388 0.034318 12.1797" fill="#FFFC00"/>
<path id="Vector_2" d="M24.2176 40.4983C24.118 40.4983 24.023 40.4947 23.9507 40.4912C23.8933 40.4962 23.8341 40.4983 23.7748 40.4983C21.682 40.4983 20.2828 39.509 19.048 38.6354C18.1629 38.0102 17.3283 37.42 16.3504 37.2574C15.8702 37.1777 15.3924 37.1373 14.9308 37.1373C14.0991 37.1373 13.4419 37.2663 12.962 37.3602C12.6667 37.4177 12.4121 37.4672 12.2153 37.4672C12.0091 37.4672 11.7587 37.4215 11.6543 37.0651C11.5716 36.784 11.5123 36.5117 11.455 36.2494C11.3117 35.594 11.2078 35.1939 10.9624 35.156C8.33771 34.751 6.7869 34.1544 6.47799 33.432C6.44562 33.356 6.42753 33.2796 6.42352 33.2041C6.41149 32.9887 6.56352 32.7999 6.7758 32.7647C8.86021 32.4215 10.7136 31.3198 12.2847 29.4891C13.5018 28.0719 14.0995 26.7178 14.1637 26.5683C14.1665 26.5615 14.1697 26.5545 14.1731 26.548C14.476 25.9336 14.5362 25.4026 14.3527 24.9703C14.0145 24.1727 12.8945 23.8173 12.1534 23.5822C11.9691 23.5239 11.7948 23.4687 11.6559 23.4136C10.999 23.1541 9.91865 22.6058 10.0626 21.8491C10.1674 21.2973 10.8972 20.9131 11.4871 20.9131C11.6509 20.9131 11.796 20.9418 11.9182 20.9992C12.5847 21.3114 13.1843 21.4697 13.7 21.4697C14.3414 21.4697 14.6511 21.2255 14.726 21.1561C14.7075 20.814 14.685 20.4523 14.6631 20.1102C14.6631 20.1098 14.6627 20.1057 14.6627 20.1057C14.5121 17.711 14.3244 14.7308 15.0867 13.0218C17.3683 7.90619 22.2069 7.50839 23.635 7.50839C23.6731 7.50839 24.2575 7.50261 24.2575 7.50261C24.2839 7.50214 24.3126 7.50177 24.3422 7.50177C25.7743 7.50177 30.623 7.90004 32.906 13.0187C33.6683 14.7289 33.4803 17.7116 33.3293 20.1088L33.3222 20.2235C33.3015 20.549 33.2824 20.8571 33.2663 21.1558C33.3368 21.2207 33.6202 21.4445 34.1969 21.4672C34.6886 21.4484 35.2535 21.2908 35.8756 20.9995C36.0679 20.9092 36.2809 20.8905 36.4254 20.8905C36.644 20.8905 36.8663 20.933 37.0517 21.0104L37.0615 21.0142C37.5895 21.2016 37.9352 21.576 37.9427 21.9695C37.9493 22.3362 37.6768 22.8843 36.3363 23.4138C36.199 23.4681 36.0238 23.5237 35.8388 23.5824C35.0971 23.8178 33.9779 24.173 33.6397 24.9701C33.456 25.4024 33.5164 25.9332 33.8194 26.5475C33.8227 26.5542 33.8256 26.561 33.8289 26.5681C33.9221 26.7867 36.1798 31.9344 41.2168 32.7642C41.4289 32.7996 41.5813 32.9886 41.5691 33.2036C41.5647 33.2809 41.546 33.3581 41.5134 33.4335C41.2066 34.152 39.6559 34.7477 37.0304 35.1533C36.784 35.1913 36.6802 35.5896 36.5382 36.2416C36.4794 36.5108 36.4197 36.7748 36.338 37.0522C36.2617 37.313 36.0917 37.4405 35.8188 37.4405H35.7777C35.6 37.4405 35.3483 37.4083 35.0308 37.3462C34.4758 37.2381 33.8534 37.1376 33.0619 37.1376C32.6004 37.1376 32.1228 37.1781 31.642 37.2576C30.6651 37.4203 29.8305 38.0096 28.9471 38.6341C27.7099 39.5089 26.3101 40.4983 24.2176 40.4983Z" fill="white"/>
<path id="Vector_3" d="M24.3422 7.92324C25.6904 7.92324 30.3331 8.28541 32.5209 13.1904C33.2413 14.8056 33.0567 17.7314 32.9085 20.0817C32.8854 20.4547 32.8625 20.8162 32.8438 21.1614L32.836 21.3098L32.935 21.4204C32.975 21.4648 33.3495 21.8561 34.1824 21.8883L34.1959 21.889L34.2099 21.8888C34.7605 21.8678 35.3808 21.6967 36.0544 21.3812C36.1536 21.3347 36.2857 21.3121 36.4254 21.3121C36.5846 21.3121 36.7538 21.342 36.8934 21.4008L36.9144 21.4092C37.2676 21.5329 37.5173 21.7663 37.5212 21.9775C37.5232 22.0968 37.4339 22.5269 36.1819 23.0215C36.0595 23.0698 35.8984 23.1212 35.7117 23.1801C34.8969 23.4388 33.6659 23.8293 33.2516 24.8055C33.0183 25.3554 33.0822 26.0044 33.4413 26.7342C33.589 27.079 35.9148 32.3178 41.1484 33.1802C41.1473 33.205 41.141 33.2322 41.127 33.2641C41.0383 33.4731 40.4745 34.1949 36.966 34.7362C36.417 34.8204 36.2825 35.4358 36.1266 36.1512C36.0702 36.4073 36.013 36.6658 35.9342 36.9329C35.9102 37.0135 35.9057 37.0181 35.8192 37.0181C35.8073 37.0181 35.7933 37.0181 35.778 37.0181C35.6224 37.0181 35.3863 36.9858 35.1125 36.9321C34.614 36.835 33.9329 36.7159 33.0623 36.7159C32.5763 36.7159 32.0757 36.7582 31.5735 36.842C30.4998 37.0205 29.6267 37.6381 28.702 38.2917C27.4602 39.1692 26.1767 40.0772 24.2184 40.0772C24.1329 40.0772 24.0494 40.0743 23.9657 40.0701L23.9437 40.0692L23.9216 40.0709C23.8736 40.0751 23.8252 40.0772 23.7758 40.0772C21.8177 40.0772 20.5337 39.1695 19.2924 38.2917C18.3675 37.6381 17.494 37.0205 16.4205 36.842C15.9187 36.7584 15.4177 36.7159 14.932 36.7159C14.0615 36.7159 13.3796 36.8491 12.8821 36.9464C12.6084 36.9999 12.3714 37.0458 12.2162 37.0458C12.0892 37.0458 12.0868 37.0383 12.0599 36.9466C11.9812 36.6793 11.9237 36.4146 11.8676 36.1589C11.7113 35.4428 11.5767 34.824 11.028 34.7398C7.51979 34.198 6.95587 33.4749 6.86689 33.2666C6.853 33.2337 6.84675 33.2058 6.84535 33.181C12.0788 32.3193 14.4041 27.0803 14.5523 26.7342C14.9121 26.005 14.9758 25.3561 14.7418 24.8055C14.3275 23.8298 13.0967 23.4388 12.2825 23.1806C12.0953 23.1213 11.9341 23.0698 11.8116 23.0215C10.7543 22.6038 10.4291 22.1829 10.4774 21.9279C10.5335 21.6338 11.0433 21.3348 11.4882 21.3348C11.5882 21.3348 11.6758 21.351 11.7407 21.3813C12.4632 21.7199 13.1228 21.8917 13.7014 21.8917C14.6109 21.8917 15.0157 21.4685 15.0591 21.4202L15.1577 21.3099L15.1498 21.1623C15.1314 20.8173 15.1088 20.4558 15.0849 20.0836C14.9372 17.7327 14.7526 14.8089 15.4727 13.1936C17.6524 8.30658 22.2724 7.92986 23.6362 7.92986C23.6698 7.92986 24.2627 7.9238 24.2627 7.9238C24.287 7.92361 24.3139 7.92324 24.3422 7.92324ZM24.3422 7.08026H24.3406C24.3095 7.08026 24.2803 7.08026 24.2526 7.08063C24.0309 7.08287 23.6666 7.08642 23.6339 7.08679C22.8349 7.08679 21.2364 7.19965 19.5193 7.95757C18.5375 8.39062 17.6544 8.97618 16.8946 9.698C15.9888 10.558 15.2508 11.6184 14.7016 12.8502C13.8974 14.6537 14.0883 17.6914 14.2416 20.1326L14.2422 20.1364C14.2586 20.3978 14.2759 20.6708 14.2916 20.9368C14.1736 20.991 13.9823 21.0482 13.7004 21.0482C13.2467 21.0482 12.7072 20.9032 12.0973 20.6174C11.9179 20.5338 11.7131 20.4916 11.4871 20.4916C11.124 20.4916 10.7412 20.5985 10.4091 20.7937C9.99137 21.039 9.72144 21.3857 9.64813 21.77C9.59982 22.0243 9.60215 22.5268 10.1604 23.0365C10.4674 23.317 10.9185 23.5757 11.5007 23.8058C11.6535 23.866 11.8348 23.9235 12.0268 23.9844C12.6932 24.1962 13.7019 24.5162 13.9649 25.1352C14.0982 25.4491 14.0408 25.8621 13.7949 26.3613C13.7884 26.3749 13.782 26.3882 13.7761 26.4022C13.7146 26.5458 13.1412 27.8447 11.965 29.2145C11.2966 29.9935 10.5604 30.6445 9.77806 31.1501C8.82315 31.7672 7.7899 32.1707 6.70731 32.3491C6.28218 32.4188 5.97858 32.7976 6.00227 33.2281C6.00955 33.3521 6.03865 33.4758 6.08911 33.5954C6.08948 33.5962 6.08995 33.5969 6.09032 33.5976C6.26222 33.9997 6.66076 34.3412 7.30872 34.6425C8.10049 35.0103 9.28466 35.3196 10.828 35.5617C10.906 35.71 10.9869 36.0827 11.043 36.3379C11.1017 36.6091 11.1628 36.888 11.2501 37.1842C11.3442 37.5052 11.5883 37.8887 12.2153 37.8887C12.453 37.8887 12.7263 37.8352 13.0427 37.7738C13.5062 37.6828 14.14 37.5588 14.931 37.5588C15.3695 37.5588 15.8241 37.5974 16.2815 37.6734C17.1634 37.8202 17.9237 38.3573 18.8033 38.9792C20.0908 39.8894 21.5482 40.9195 23.7748 40.9195C23.8355 40.9195 23.8964 40.9176 23.9566 40.9134C24.0302 40.9168 24.1214 40.9195 24.2177 40.9195C26.445 40.9195 27.902 39.889 29.1881 38.9796L29.1901 38.9777C30.0699 38.3565 30.8294 37.8202 31.7109 37.6734C32.1683 37.5975 32.6227 37.5588 33.0614 37.5588C33.8171 37.5588 34.4154 37.6551 34.9497 37.7593C35.2983 37.828 35.5693 37.861 35.7772 37.861L35.7975 37.8614H35.8186C36.2772 37.8614 36.6142 37.6096 36.7428 37.1691C36.8282 36.8791 36.8892 36.6068 36.9494 36.331C37.0018 36.0918 37.0856 35.7085 37.1636 35.5586C38.7079 35.3161 39.8916 35.0074 40.6835 34.6397C41.33 34.3398 41.728 33.9987 41.901 33.5982C41.9528 33.4782 41.9831 33.3538 41.9899 33.2271C42.0143 32.7974 41.7102 32.4179 41.2848 32.3481C36.4734 31.5551 34.3059 26.6114 34.2163 26.4014C34.2105 26.3876 34.204 26.3739 34.1972 26.3605C33.9512 25.8612 33.8944 25.4486 34.0278 25.1342C34.2903 24.5157 35.2982 24.1957 35.9651 23.984C36.1582 23.9232 36.3402 23.8654 36.4917 23.8055C37.1483 23.5462 37.6175 23.2649 37.9271 22.9454C38.2968 22.5646 38.3688 22.1997 38.3643 21.9609C38.353 21.3832 37.9114 20.8699 37.2089 20.6185C36.9716 20.5204 36.701 20.4686 36.4255 20.4686C36.2379 20.4686 35.9602 20.4944 35.6972 20.6171C35.1344 20.8805 34.6301 21.0245 34.1973 21.045C33.9671 21.0334 33.8056 20.9835 33.7011 20.9358C33.7142 20.7105 33.7288 20.479 33.7438 20.2376L33.75 20.1342C33.9042 17.6915 34.0958 14.6514 33.2911 12.8466C32.7396 11.6105 31.9991 10.5474 31.0896 9.6855C30.3268 8.96321 29.4407 8.37775 28.4554 7.94497C26.7407 7.19265 25.1423 7.08026 24.3422 7.08026Z" fill="#020202"/>
</g>
<defs>
<clipPath id="clip0_7405_13998">
<rect width="48" height="48" fill="white"/>
</clipPath>
</defs>
</svg>
