<svg width="48" height="48" viewBox="0 0 48 48" fill="none" xmlns="http://www.w3.org/2000/svg">
<g id="whatsapp 1" clip-path="url(#clip0_7404_13903)">
<g id="Group">
<path id="Vector" d="M40.8 0H7.2C3.22355 0 0 3.22355 0 7.2V40.8C0 44.7765 3.22355 48 7.2 48H40.8C44.7765 48 48 44.7765 48 40.8V7.2C48 3.22355 44.7765 0 40.8 0Z" fill="#25D366"/>
<path id="Vector_2" d="M11.5266 36.8435L12.8391 30.7498C11.1522 28.089 10.4941 24.9041 10.9884 21.7926C11.4826 18.6812 13.0952 15.857 15.5236 13.8499C17.9521 11.8428 21.0294 10.7909 24.1783 10.8914C27.3272 10.9918 30.3312 12.2379 32.6267 14.3957C34.9222 16.5534 36.3515 19.4747 36.6464 22.6114C36.9412 25.748 36.0814 28.8845 34.2283 31.4323C32.3751 33.9801 29.656 35.7641 26.581 36.4497C23.506 37.1353 20.2866 36.6753 17.5266 35.156L11.5266 36.8435Z" fill="#25D366" stroke="white"/>
<path id="Vector_3" d="M28.8682 25.5936C28.587 25.4061 28.3057 25.3123 28.0245 25.6873L26.8995 27.1873C26.6182 27.3748 26.4307 27.4686 26.0557 27.2811C24.6495 26.5311 22.6807 25.6873 20.9932 22.8748C20.8995 22.4998 21.087 22.3123 21.2745 22.1248L22.1182 20.8123C22.3057 20.6248 22.212 20.4373 22.1182 20.2498L20.9932 17.5311C20.712 16.7811 20.4307 16.8748 20.1495 16.8748H19.3995C19.212 16.8748 18.837 16.9686 18.462 17.3436C16.3995 19.4061 17.2432 22.3123 18.7432 24.1873C19.0245 24.5623 20.8995 27.9373 24.9307 29.7186C27.9307 31.0311 28.587 30.8436 29.4307 30.6561C30.462 30.5623 31.4932 29.7186 31.962 28.8748C32.0557 28.5936 32.5245 27.3748 32.1495 27.1873" fill="white"/>
</g>
</g>
<defs>
<clipPath id="clip0_7404_13903">
<rect width="48" height="48" fill="white"/>
</clipPath>
</defs>
</svg>
